<svg width="567" height="100" viewBox="0 0 567 100" fill="none" xmlns="http://www.w3.org/2000/svg">
<path d="M453.703 47.7672L479.537 2.82414C480.475 1.19828 482.209 0 484.085 0H535.753C537.63 0 539.363 1.19828 540.303 2.82414L566.135 47.669C566.596 48.4761 566.839 49.3895 566.839 50.319C566.839 51.2484 566.596 52.1618 566.135 52.969L540.303 97.5448C539.363 99.169 537.63 100 535.753 100H484.085C482.209 100 480.475 99.1948 479.537 97.569L453.704 52.9207C453.243 52.1399 453 51.2498 453 50.3431C453 49.4364 453.243 48.5463 453.704 47.7655L453.703 47.7672ZM475.094 69.3776C475.094 70.0397 475.492 70.65 476.065 70.981L508.972 89.9655C509.544 90.2966 510.261 90.2966 510.834 89.9655L543.765 70.981C544.337 70.65 544.737 70.0397 544.737 69.3776V31.4069C544.737 30.7466 544.342 30.1345 543.772 29.8034L510.863 10.8224C510.58 10.66 510.259 10.5745 509.933 10.5745C509.606 10.5745 509.286 10.66 509.003 10.8224L476.068 29.8052C475.496 30.1362 475.092 30.7483 475.092 31.4086V69.3793L475.094 69.3776Z" fill="#639DF9"/>
<path d="M510.332 14L495.928 38.9462C501.394 37.2613 507.273 37.0115 512.972 38.3559L517.84 39.5049L513.26 58.9246L508.386 57.7756C504.641 56.8922 500.737 57.7675 497.719 60.1541C496.208 61.3485 495.019 62.8481 494.203 64.5303L489.698 62.3502C490.838 59.9958 492.504 57.8959 494.609 56.2295C498.82 52.8964 504.311 51.672 509.538 52.9056L511.821 43.227C503.644 41.2992 495.025 43.2189 488.436 48.4337C481.848 53.648 478 61.597 478 69.9989L542.665 70L510.332 14Z" fill="#60A5FA"/>
<path d="M386.318 48.1591V44.4773H407.318V48.1591H386.318ZM386.318 58.25V54.5682H407.318V58.25H386.318Z" fill="#888888"/>
<path d="M306.414 36.3966L284.794 23.9138C284.528 23.76 284.226 23.6791 283.919 23.6791C283.611 23.6791 283.31 23.76 283.044 23.9138L261.423 36.3966C261.157 36.5499 260.936 36.7705 260.782 37.0362C260.629 37.3019 260.548 37.6034 260.547 37.9104V62.8759C260.547 63.5 260.882 64.0776 261.423 64.3914L283.044 76.8741C283.585 77.1862 284.251 77.1862 284.794 76.8741L306.414 64.3914C306.956 64.0793 307.288 63.5017 307.288 62.8759V37.9104C307.288 37.2845 306.956 36.7086 306.414 36.3948V36.3966Z" fill="#8080F2"/>
<path d="M227.703 47.7672L253.537 2.82414C254.475 1.19828 256.209 0 258.085 0H309.753C311.63 0 313.363 1.19828 314.303 2.82414L340.135 47.669C340.596 48.4761 340.839 49.3895 340.839 50.319C340.839 51.2484 340.596 52.1618 340.135 52.969L314.303 97.5448C313.363 99.169 311.63 100 309.753 100H258.085C256.209 100 254.475 99.1948 253.537 97.569L227.704 52.9207C227.243 52.1399 227 51.2498 227 50.3431C227 49.4364 227.243 48.5463 227.704 47.7655L227.703 47.7672ZM249.094 69.3776C249.094 70.0397 249.492 70.65 250.065 70.981L282.972 89.9655C283.544 90.2966 284.261 90.2966 284.834 89.9655L317.765 70.981C318.337 70.65 318.737 70.0397 318.737 69.3776V31.4069C318.737 30.7466 318.342 30.1345 317.772 29.8034L284.863 10.8224C284.58 10.66 284.259 10.5745 283.933 10.5745C283.606 10.5745 283.286 10.66 283.003 10.8224L250.068 29.8052C249.496 30.1362 249.092 30.7483 249.092 31.4086V69.3793L249.094 69.3776Z" fill="#4B32C3"/>
<path d="M168.909 62.6136V40.1136H172.727V62.6136H168.909ZM159.568 53.2727V49.4545H182.068V53.2727H159.568Z" fill="#888888"/>
<path d="M57.7349 0L32.0146 44.5469C41.7742 41.5381 52.2733 41.092 62.4506 43.4926L71.1432 45.5444L62.9648 80.2225L54.26 78.1707C47.5731 76.5933 40.6026 78.1563 35.2117 82.418C32.5151 84.5509 30.3907 87.2287 28.9348 90.2326L20.8886 86.3397C22.9241 82.1354 25.9002 78.3856 29.6594 75.4097C37.179 69.4578 46.9832 67.2715 56.3187 69.4742L60.3954 52.1911C45.7922 48.7485 30.402 52.1767 18.6364 61.4888C6.87198 70.8 0 84.9946 0 99.9981L115.473 100L57.7349 0Z" fill="#60A5FA"/>
</svg>
