<svg width="114" height="100" viewBox="0 0 114 100" fill="none" xmlns="http://www.w3.org/2000/svg">
<path d="M0.702558 47.7672L26.537 2.82414C27.475 1.19828 29.2095 0 31.0853 0H82.7526C84.6301 0 86.3629 1.19828 87.3026 2.82414L113.135 47.669C113.596 48.4761 113.839 49.3895 113.839 50.319C113.839 51.2484 113.596 52.1618 113.135 52.969L87.3026 97.5448C86.3629 99.169 84.6301 100 82.7526 100H31.0853C29.2095 100 27.475 99.1948 26.537 97.569L0.704282 52.9207C0.243211 52.1399 0 51.2498 0 50.3431C0 49.4364 0.243211 48.5463 0.704282 47.7655L0.702558 47.7672ZM22.0939 69.3776C22.0939 70.0397 22.4922 70.65 23.0646 70.981L55.9715 89.9655C56.5439 90.2966 57.2612 90.2966 57.8336 89.9655L90.7646 70.981C91.337 70.65 91.737 70.0397 91.737 69.3776V31.4069C91.737 30.7466 91.3422 30.1345 90.7715 29.8034L57.8629 10.8224C57.5798 10.66 57.2591 10.5745 56.9327 10.5745C56.6063 10.5745 56.2856 10.66 56.0026 10.8224L23.0681 29.8052C22.4957 30.1362 22.0922 30.7483 22.0922 31.4086V69.3793L22.0939 69.3776Z" fill="#639DF9"/>
<path d="M57.3315 14L42.9282 38.9462C48.3936 37.2613 54.273 37.0115 59.9723 38.3559L64.8402 39.5049L60.2603 58.9246L55.3856 57.7756C51.6409 56.8922 47.7374 57.7675 44.7186 60.1541C43.2085 61.3485 42.0188 62.8481 41.2035 64.5303L36.6976 62.3502C37.8375 59.9958 39.5041 57.8959 41.6092 56.2295C45.8203 52.8964 51.3106 51.672 56.5385 52.9056L58.8214 43.227C50.6436 41.2992 42.0251 43.2189 35.4364 48.4337C28.8483 53.648 25 61.597 25 69.9989L89.6649 70L57.3315 14Z" fill="#60A5FA"/>
</svg>
